{
  "accessors": [
    {
      "bufferView": 2,
      "componentType": 5126,
      "count": 11139,
      "max": [
        -0.4927195906639099,
        2.5,
        2.0367000102996826
      ],
      "min": [
        -3.476424217224121,
        -5.234539912635228e-07,
        -3.790440797805786
      ],
      "type": "VEC3"
    },
    {
      "bufferView": 2,
      "byteOffset": 133668,
      "componentType": 5126,
      "count": 11139,
      "max": [
        1.0,
        1.0,
        1.0
      ],
      "min": [
        -1.0,
        -1.0,
        -1.0
      ],
      "type": "VEC3"
    },
    {
      "bufferView": 1,
      "componentType": 5126,
      "count": 11139,
      "max": [
        1.0,
        1.0
      ],
      "min": [
        0.0,
        0.010393738746643066
      ],
      "type": "VEC2"
    },
    {
      "bufferView": 1,
      "byteOffset": 89112,
      "componentType": 5126,
      "count": 11139,
      "max": [
        472.7720947265625,
        200.118408203125
      ],
      "min": [
        -471.77191162109375,
        -466.27203369140625
      ],
      "type": "VEC2"
    },
    {
      "bufferView": 1,
      "byteOffset": 178224,
      "componentType": 5126,
      "count": 11139,
      "max": [
        4.365006446838379,
        204.6699981689453
      ],
      "min": [
        -558.3212280273438,
        -378.0440979003906
      ],
      "type": "VEC2"
    },
    {
      "bufferView": 0,
      "componentType": 5125,
      "count": 31401,
      "type": "SCALAR"
    },
    {
      "bufferView": 2,
      "byteOffset": 267336,
      "componentType": 5126,
      "count": 5622,
      "max": [
        3.4749999046325684,
        2.5000009536743164,
        5.574999809265137
      ],
      "min": [
        -3.4749999046325684,
        2.3967809677124023,
        -4.963804244995117
      ],
      "type": "VEC3"
    },
    {
      "bufferView": 2,
      "byteOffset": 334800,
      "componentType": 5126,
      "count": 5622,
      "max": [
        1.0,
        1.0,
        1.0
      ],
      "min": [
        -1.0,
        -1.0,
        -1.0
      ],
      "type": "VEC3"
    },
    {
      "bufferView": 1,
      "byteOffset": 267336,
      "componentType": 5126,
      "count": 5622,
      "max": [
        0.9989573359489441,
        1.0
      ],
      "min": [
        0.0,
        0.0027124881744384766
      ],
      "type": "VEC2"
    },
    {
      "bufferView": 1,
      "byteOffset": 312312,
      "componentType": 5126,
      "count": 5622,
      "max": [
        347.5,
        558.5
      ],
      "min": [
        -347.5,
        -376.0440368652344
      ],
      "type": "VEC2"
    },
    {
      "bufferView": 1,
      "byteOffset": 357288,
      "componentType": 5126,
      "count": 5622,
      "max": [
        347.5,
        208.6699981689453
      ],
      "min": [
        -347.5,
        -495.38043212890625
      ],
      "type": "VEC2"
    },
    {
      "bufferView": 0,
      "byteOffset": 125604,
      "componentType": 5125,
      "count": 9318,
      "type": "SCALAR"
    },
    {
      "bufferView": 2,
      "byteOffset": 402264,
      "componentType": 5126,
      "count": 10728,
      "max": [
        1.749397873878479,
        0.6598015427589417,
        0.8878692388534546
      ],
      "min": [
        -1.030626654624939,
        -0.19781997799873352,
        -4.272018909454346
      ],
      "type": "VEC3"
    },
    {
      "bufferView": 2,
      "byteOffset": 531000,
      "componentType": 5126,
      "count": 10728,
      "max": [
        0.9999779462814331,
        0.9999976754188538,
        0.9999985694885254
      ],
      "min": [
        -0.9999987483024597,
        -0.9999865293502808,
        -0.9999428987503052
      ],
      "type": "VEC3"
    },
    {
      "bufferView": 1,
      "byteOffset": 402264,
      "componentType": 5126,
      "count": 10728,
      "max": [
        1.0,
        1.0
      ],
      "min": [
        0.0,
        0.0004121065139770508
      ],
      "type": "VEC2"
    },
    {
      "bufferView": 1,
      "byteOffset": 488088,
      "componentType": 5126,
      "count": 10728,
      "max": [
        100.20918273925781,
        89.78692626953125
      ],
      "min": [
        -103.06266784667969,
        -104.89033508300781
      ],
      "type": "VEC2"
    },
    {
      "bufferView": 1,
      "byteOffset": 573912,
      "componentType": 5126,
      "count": 10728,
      "max": [
        100.20918273925781,
        89.78692626953125
      ],
      "min": [
        -103.06266784667969,
        -104.89033508300781
      ],
      "type": "VEC2"
    },
    {
      "bufferView": 0,
      "byteOffset": 162876,
      "componentType": 5125,
      "count": 57756,
      "type": "SCALAR"
    },
    {
      "bufferView": 2,
      "byteOffset": 659736,
      "componentType": 5126,
      "count": 14573,
      "max": [
        3.575000286102295,
        2.500000476837158,
        0.9088917374610901
      ],
      "min": [
        -0.5227197408676147,
        -0.009927758015692234,
        -4.983803749084473
      ],
      "type": "VEC3"
    },
    {
      "bufferView": 2,
      "byteOffset": 834612,
      "componentType": 5126,
      "count": 14573,
      "max": [
        1.0,
        1.0,
        1.0
      ],
      "min": [
        -1.0,
        -1.0,
        -1.0
      ],
      "type": "VEC3"
    },
    {
      "bufferView": 1,
      "byteOffset": 659736,
      "componentType": 5126,
      "count": 14573,
      "max": [
        0.9999934434890747,
        1.0
      ],
      "min": [
        0.0,
        0.0
      ],
      "type": "VEC2"
    },
    {
      "bufferView": 1,
      "byteOffset": 776320,
      "componentType": 5126,
      "count": 14573,
      "max": [
        1269.9991455078125,
        164.31124877929688
      ],
      "min": [
        -1269.9991455078125,
        -531.440185546875
      ],
      "type": "VEC2"
    },
    {
      "bufferView": 1,
      "byteOffset": 892904,
      "componentType": 5126,
      "count": 14573,
      "max": [
        1.450792908668518,
        2.2883949279785156
      ],
      "min": [
        -1.88010573387146,
        -1.1909704208374023
      ],
      "type": "VEC2"
    },
    {
      "bufferView": 0,
      "byteOffset": 393900,
      "componentType": 5125,
      "count": 42510,
      "type": "SCALAR"
    },
    {
      "bufferView": 2,
      "byteOffset": 1009488,
      "componentType": 5126,
      "count": 65532,
      "max": [
        3.4750001430511475,
        2.5,
        5.674999713897705
      ],
      "min": [
        -3.475041627883911,
        -0.00016128539573401213,
        0.9623891711235046
      ],
      "type": "VEC3"
    },
    {
      "bufferView": 2,
      "byteOffset": 1795872,
      "componentType": 5126,
      "count": 65532,
      "max": [
        1.0,
        1.0,
        1.0
      ],
      "min": [
        -1.0,
        -1.0,
        -1.0
      ],
      "type": "VEC3"
    },
    {
      "bufferView": 1,
      "byteOffset": 1009488,
      "componentType": 5126,
      "count": 65532,
      "max": [
        1.0,
        0.9999980926513672
      ],
      "min": [
        0.0,
        0.00027674436569213867
      ],
      "type": "VEC2"
    },
    {
      "bufferView": 1,
      "byteOffset": 1533744,
      "componentType": 5126,
      "count": 65532,
      "max": [
        472.7720947265625,
        472.7720947265625
      ],
      "min": [
        -471.77203369140625,
        -306.2744140625
      ],
      "type": "VEC2"
    },
    {
      "bufferView": 1,
      "byteOffset": 2058000,
      "componentType": 5126,
      "count": 65532,
      "max": [
        0.9999272227287292,
        1.0
      ],
      "min": [
        0.0,
        0.0
      ],
      "type": "VEC2"
    },
    {
      "bufferView": 0,
      "byteOffset": 563940,
      "componentType": 5125,
      "count": 228525,
      "type": "SCALAR"
    },
    {
      "bufferView": 2,
      "byteOffset": 2582256,
      "componentType": 5126,
      "count": 38357,
      "max": [
        3.4749999046325684,
        2.499999761581421,
        5.644999027252197
      ],
      "min": [
        -3.4749999046325684,
        -0.0008779829367995262,
        1.6373666524887085
      ],
      "type": "VEC3"
    },
    {
      "bufferView": 2,
      "byteOffset": 3042540,
      "componentType": 5126,
      "count": 38357,
      "max": [
        1.0,
        1.0,
        1.0
      ],
      "min": [
        -1.0,
        -1.0,
        -1.0
      ],
      "type": "VEC3"
    },
    {
      "bufferView": 1,
      "byteOffset": 2582256,
      "componentType": 5126,
      "count": 38357,
      "max": [
        0.999965250492096,
        1.0
      ],
      "min": [
        0.0,
        0.00024086236953735352
      ],
      "type": "VEC2"
    },
    {
      "bufferView": 1,
      "byteOffset": 2889112,
      "componentType": 5126,
      "count": 38357,
      "max": [
        347.5000305175781,
        197.88165283203125
      ],
      "min": [
        -347.5000305175781,
        -195.88165283203125
      ],
      "type": "VEC2"
    },
    {
      "bufferView": 1,
      "byteOffset": 3195968,
      "componentType": 5126,
      "count": 38357,
      "max": [
        0.9990262389183044,
        0.9999982118606567
      ],
      "min": [
        0.0,
        0.0007506608963012695
      ],
      "type": "VEC2"
    },
    {
      "bufferView": 0,
      "byteOffset": 1478040,
      "componentType": 5125,
      "count": 126219,
      "type": "SCALAR"
    }
  ],
  "asset": {
    "extras": {
      "author": "SrMonteiro (https://sketchfab.com/crispimrafael)",
      "license": "CC-BY-4.0 (http://creativecommons.org/licenses/by/4.0/)",
      "source": "https://sketchfab.com/3d-models/appartement-6a7a5fe208344b2e8123a88923dbd5b3",
      "title": "Appartement"
    },
    "generator": "Sketchfab-17.15.0",
    "version": "2.0"
  },
  "bufferViews": [
    {
      "buffer": 0,
      "byteLength": 1982916,
      "name": "floatBufferViews",
      "target": 34963
    },
    {
      "buffer": 0,
      "byteLength": 3502824,
      "byteOffset": 1982916,
      "byteStride": 8,
      "name": "floatBufferViews",
      "target": 34962
    },
    {
      "buffer": 0,
      "byteLength": 3502824,
      "byteOffset": 5485740,
      "byteStride": 12,
      "name": "floatBufferViews",
      "target": 34962
    }
  ],
  "buffers": [
    {
      "byteLength": 8988564,
      "uri": "scene.bin"
    }
  ],
  "extensionsUsed": [
    "KHR_materials_unlit"
  ],
  "images": [
    {
      "uri": "textures/baked_Material_-2147483312_baseColor.jpeg"
    },
    {
      "uri": "textures/baked_Material_-2147483252_baseColor.jpeg"
    },
    {
      "uri": "textures/Material_-2147483616_baseColor.jpeg"
    },
    {
      "uri": "textures/baked_Material_-2147483373_baseColor.jpeg"
    },
    {
      "uri": "textures/baked_Material_-2147480571_baseColor.jpeg"
    }
  ],
  "materials": [
    {
      "extensions": {
        "KHR_materials_unlit": {}
      },
      "name": "baked_Material_-2147483312",
      "pbrMetallicRoughness": {
        "baseColorTexture": {
          "index": 0
        },
        "metallicFactor": 0.0
      }
    },
    {
      "extensions": {
        "KHR_materials_unlit": {}
      },
      "name": "baked_Material_-2147483252",
      "pbrMetallicRoughness": {
        "baseColorTexture": {
          "index": 1
        },
        "metallicFactor": 0.0
      }
    },
    {
      "doubleSided": true,
      "extensions": {
        "KHR_materials_unlit": {}
      },
      "name": "Material_-2147483616",
      "pbrMetallicRoughness": {
        "baseColorTexture": {
          "index": 2
        },
        "metallicFactor": 0.0
      }
    },
    {
      "extensions": {
        "KHR_materials_unlit": {}
      },
      "name": "baked_Material_-2147483373",
      "pbrMetallicRoughness": {
        "baseColorTexture": {
          "index": 3
        },
        "metallicFactor": 0.0
      }
    },
    {
      "extensions": {
        "KHR_materials_unlit": {}
      },
      "name": "baked_Material_-2147480571",
      "pbrMetallicRoughness": {
        "baseColorTexture": {
          "index": 4
        },
        "metallicFactor": 0.0
      }
    }
  ],
  "meshes": [
    {
      "name": "Object_0",
      "primitives": [
        {
          "attributes": {
            "NORMAL": 1,
            "POSITION": 0,
            "TEXCOORD_0": 2,
            "TEXCOORD_1": 3,
            "TEXCOORD_2": 4
          },
          "indices": 5,
          "material": 0,
          "mode": 4
        }
      ]
    },
    {
      "name": "Object_1",
      "primitives": [
        {
          "attributes": {
            "NORMAL": 7,
            "POSITION": 6,
            "TEXCOORD_0": 8,
            "TEXCOORD_1": 9,
            "TEXCOORD_2": 10
          },
          "indices": 11,
          "material": 1,
          "mode": 4
        }
      ]
    },
    {
      "name": "Object_2",
      "primitives": [
        {
          "attributes": {
            "NORMAL": 13,
            "POSITION": 12,
            "TEXCOORD_0": 14,
            "TEXCOORD_1": 15,
            "TEXCOORD_2": 16
          },
          "indices": 17,
          "material": 2,
          "mode": 4
        }
      ]
    },
    {
      "name": "Object_3",
      "primitives": [
        {
          "attributes": {
            "NORMAL": 19,
            "POSITION": 18,
            "TEXCOORD_0": 20,
            "TEXCOORD_1": 21,
            "TEXCOORD_2": 22
          },
          "indices": 23,
          "material": 3,
          "mode": 4
        }
      ]
    },
    {
      "name": "Object_4",
      "primitives": [
        {
          "attributes": {
            "NORMAL": 25,
            "POSITION": 24,
            "TEXCOORD_0": 26,
            "TEXCOORD_1": 27,
            "TEXCOORD_2": 28
          },
          "indices": 29,
          "material": 4,
          "mode": 4
        }
      ]
    },
    {
      "name": "Object_5",
      "primitives": [
        {
          "attributes": {
            "NORMAL": 31,
            "POSITION": 30,
            "TEXCOORD_0": 32,
            "TEXCOORD_1": 33,
            "TEXCOORD_2": 34
          },
          "indices": 35,
          "material": 4,
          "mode": 4
        }
      ]
    }
  ],
  "nodes": [
    {
      "children": [
        1
      ],
      "matrix": [
        1.0,
        0.0,
        0.0,
        0.0,
        0.0,
        2.220446049250313e-16,
        -1.0,
        0.0,
        0.0,
        1.0,
        2.220446049250313e-16,
        0.0,
        0.0,
        0.0,
        0.0,
        1.0
      ],
      "name": "Sketchfab_model"
    },
    {
      "children": [
        2
      ],
      "name": "root"
    },
    {
      "children": [
        3,
        5,
        7,
        9,
        11
      ],
      "matrix": [
        1.0,
        0.0,
        0.0,
        0.0,
        0.0,
        2.220446049250313e-16,
        1.0,
        0.0,
        0.0,
        -1.0,
        2.220446049250313e-16,
        0.0,
        0.0,
        0.0,
        0.0,
        1.0
      ],
      "name": "GLTF_SceneRootNode"
    },
    {
      "children": [
        4
      ],
      "matrix": [
        1.0,
        0.0,
        0.0,
        0.0,
        0.0,
        1.0,
        0.0,
        0.0,
        0.0,
        0.0,
        1.0,
        0.0,
        -3.2822365760803223,
        0.0,
        -1.2899515628814697,
        1.0
      ],
      "name": "Banheiros_Corredor_0"
    },
    {
      "mesh": 0,
      "name": "Object_4"
    },
    {
      "children": [
        6
      ],
      "matrix": [
        1.0,
        0.0,
        0.0,
        0.0,
        0.0,
        1.0,
        0.0,
        0.0,
        0.0,
        0.0,
        1.0,
        0.0,
        -3.2822365760803223,
        0.0,
        -1.2899515628814697,
        1.0
      ],
      "name": "Teto_1"
    },
    {
      "mesh": 1,
      "name": "Object_6"
    },
    {
      "children": [
        8
      ],
      "matrix": [
        1.0,
        0.0,
        0.0,
        0.0,
        0.0,
        1.0,
        0.0,
        0.0,
        0.0,
        0.0,
        1.0,
        0.0,
        -2.0845720767974854,
        0.19611306488513947,
        -1.3879135847091675,
        1.0
      ],
      "name": "Chambre01_Meuble_Lit_2"
    },
    {
      "mesh": 2,
      "name": "Object_8"
    },
    {
      "children": [
        10
      ],
      "matrix": [
        1.0,
        0.0,
        0.0,
        0.0,
        0.0,
        1.0,
        0.0,
        0.0,
        0.0,
        0.0,
        1.0,
        0.0,
        -3.2822365760803223,
        0.0,
        -1.2899515628814697,
        1.0
      ],
      "name": "Quartos_3"
    },
    {
      "mesh": 3,
      "name": "Object_10"
    },
    {
      "children": [
        12,
        13
      ],
      "matrix": [
        1.0,
        0.0,
        0.0,
        0.0,
        0.0,
        1.0,
        0.0,
        0.0,
        0.0,
        0.0,
        1.0,
        0.0,
        -3.2822365760803223,
        0.0,
        -1.2899515628814697,
        1.0
      ],
      "name": "Sala_Cozinha_4"
    },
    {
      "mesh": 4,
      "name": "Object_12"
    },
    {
      "mesh": 5,
      "name": "Object_13"
    }
  ],
  "samplers": [
    {
      "magFilter": 9729,
      "minFilter": 9987,
      "wrapS": 10497,
      "wrapT": 10497
    }
  ],
  "scene": 0,
  "scenes": [
    {
      "name": "Sketchfab_Scene",
      "nodes": [
        0
      ]
    }
  ],
  "textures": [
    {
      "sampler": 0,
      "source": 0
    },
    {
      "sampler": 0,
      "source": 1
    },
    {
      "sampler": 0,
      "source": 2
    },
    {
      "sampler": 0,
      "source": 3
    },
    {
      "sampler": 0,
      "source": 4
    }
  ]
}
